<svg aria-label="Exact" focusable="false" height="36" role="img" viewBox="0 0 170 36" width="170" xmlns="http://www.w3.org/2000/svg"><path d="M25.963 11.675H0v6.824h25.963v-6.824Zm0 11.782H0v6.824h3.424v-.001h19.114v.001h3.425v-6.824Zm88.331 5.97h-10.236c-1.705 0-2.719-.907-2.719-2.56 0-1.652 1.014-2.558 2.719-2.558h10.236v5.118Zm-4.745-23.669H95.897v6.823h13.225c4.045 0 5.139 1.554 5.17 5.118h-10.554c-6.237 0-9.649 3.199-9.649 9.168 0 5.919 3.412 9.171 9.649 9.171h16.58l.006-.001h1.326V17.434c0-7.891-2.985-11.676-12.101-11.676Zm38.352 23.456h-8.582c-4.639 0-6.346-2.239-6.346-8.316 0-6.077 1.707-8.316 6.346-8.316h8.475l.013-.001h1.324V5.758h-10.559c-9.435 0-13.061 4.691-13.061 15.14 0 10.448 3.626 15.139 13.061 15.139h10.661v-6.823h-1.332Zm-89.217 0H46.422c-3.855 0-5.646-1.365-6.142-4.796H52.2v.004h4.186v-1.216c.003-.04.005-.081.005-.123v-4.158c0-.041-.002-.082-.005-.123v-1.203H55.21a1.54 1.54 0 0 0-.151-.007H40.253c.455-3.555 2.241-5.011 6.169-5.011h12.155V5.758h-3.655v.001h-9.246c-9.436 0-13.06 4.69-13.06 15.139 0 10.447 3.624 15.14 13.06 15.14h11.675l.014-.001h1.319v-6.823Zm111.316 0h-7.251c-1.439 0-2.294-1.012-2.294-2.825V12.581h8.903V5.759h-8.903V0H153.1v26.921c0 6.239 2.932 9.117 9.009 9.117h6.557l.014-.001H170v-6.823Zm-77.739 5.438L81.494 20.44 91.568 7.144l1.05-1.386h-8.64l-.726.959-6.077 8.022-6.078-8.022-.727-.959h-8.959l11.284 14.894-11.657 15.386 2.943-.001h5.696l.727-.958v-.001l6.611-8.725 6.61 8.725.727.959h8.959l-1.05-1.385Z" fill="#e1141d"></path></svg>